<svg width="22" height="20" viewBox="0 0 22 20" fill="none" xmlns="http://www.w3.org/2000/svg">
<path d="M11.0753 19.7569C10.9657 19.7569 10.8604 19.7142 10.7813 19.638C10.7639 19.6215 8.97515 17.8912 1.82092 10.7373L1.77142 10.6874C1.71558 10.632 1.6885 10.6007 1.66185 10.5694C0.582154 9.40169 0 7.92261 0 6.37754C0 2.99504 2.75212 0.24292 6.13462 0.24292C8.06596 0.24292 9.84246 1.1318 11 2.64938C12.1575 1.13138 13.934 0.24292 15.8654 0.24292C19.2479 0.24292 22 2.99504 22 6.37754C22 8.0893 21.3074 9.68007 20.05 10.8554C20.0526 10.8558 20.0386 10.8723 20.0217 10.8888C12.8239 18.087 11.3981 19.608 11.3846 19.622C11.3072 19.7053 11.1997 19.7535 11.0863 19.7565C11.0825 19.7569 11.0791 19.7569 11.0753 19.7569ZM6.13504 1.08907C3.21877 1.08907 0.846577 3.46127 0.846577 6.37754C0.846577 7.70854 1.34835 8.98327 2.25923 9.9665L2.30788 10.0228C2.31973 10.0363 2.33115 10.0507 2.34512 10.0651C2.34638 10.0663 2.376 10.0955 2.37727 10.0972L2.41873 10.1387C7.99785 15.717 10.3104 17.9944 11.0647 18.7322C11.7662 18.0041 13.8968 15.8168 19.4239 10.2906L19.4582 10.2517C20.5573 9.22315 21.1543 7.85238 21.1543 6.37754C21.1543 3.46127 18.7821 1.08907 15.8658 1.08907C14.0174 1.08907 12.3331 2.03465 11.3609 3.61823C11.2073 3.86954 10.7935 3.86954 10.64 3.61823C9.66731 2.03465 7.98346 1.08907 6.13504 1.08907Z" fill="#88629A"/>
</svg>